<?xml version="1.0" encoding="UTF-8" standalone="no"?>
<!-- Created with Inkscape (http://www.inkscape.org/) -->

<svg
   width="756.93054mm"
   height="539.93176mm"
   viewBox="0 0 756.93054 539.93176"
   version="1.1"
   id="svg180"
   xml:space="preserve"
   inkscape:version="1.2.2 (b0a8486541, 2022-12-01)"
   sodipodi:docname="lightvolley.svg"
   xmlns:inkscape="http://www.inkscape.org/namespaces/inkscape"
   xmlns:sodipodi="http://sodipodi.sourceforge.net/DTD/sodipodi-0.dtd"
   xmlns="http://www.w3.org/2000/svg"
   xmlns:svg="http://www.w3.org/2000/svg"><sodipodi:namedview
     id="namedview182"
     pagecolor="#ffffff"
     bordercolor="#000000"
     borderopacity="0.25"
     inkscape:showpageshadow="2"
     inkscape:pageopacity="0.0"
     inkscape:pagecheckerboard="0"
     inkscape:deskcolor="#d1d1d1"
     inkscape:document-units="mm"
     showgrid="false"
     inkscape:zoom="0.40063434"
     inkscape:cx="934.7676"
     inkscape:cy="1114.4826"
     inkscape:window-width="1534"
     inkscape:window-height="823"
     inkscape:window-x="66"
     inkscape:window-y="40"
     inkscape:window-maximized="1"
     inkscape:current-layer="layer1" /><defs
     id="defs177"><inkscape:path-effect
       effect="perspective-envelope"
       up_left_point="100.83917,4.0753934"
       up_right_point="152.94215,-1.0210654"
       down_left_point="100.83917,50.659539"
       down_right_point="153.15852,54.766761"
       id="path-effect24562"
       is_visible="true"
       lpeversion="1"
       deform_type="perspective"
       horizontal_mirror="false"
       vertical_mirror="false"
       overflow_perspective="false" /></defs><g
     inkscape:label="Layer 1"
     inkscape:groupmode="layer"
     id="layer1"
     transform="translate(305.89605,169.58224)"><ellipse
       style="fill:#fecb24;stroke:#000000;stroke-width:2.98902;fill-opacity:1"
       id="path856"
       cx="-127.0492"
       cy="89.005577"
       rx="176.77989"
       ry="174.1293" /><path
       d="m -282.09642,177.8423 c 19.4612,33.79762 50.05037,61.35428 88.74021,76.59185 0.66352,0.51846 1.46891,0.83009 2.31162,0.8912 2.16703,0.81959 4.35978,1.60123 6.57748,2.3433 C -91.346232,288.82787 9.4039114,238.5974 40.56313,145.47653 56.067177,99.141908 51.421857,50.923459 31.36984,10.324364 31.235232,9.8971622 31.03352,9.4925132 30.773329,9.1279072 10.41893,-31.320154 -25.297644,-64.050653 -71.628913,-79.55358 -163.16739,-110.18331 -265.86039,-59.405105 -296.65915,32.638532 c -16.4522,49.168226 -10.21369,100.464288 13.04808,142.520558 0.15474,1.09224 0.71669,2.03153 1.51342,2.68177 z M 38.408404,120.25942 C 44.78169,86.495168 40.535485,52.57838 27.646062,22.470747 8.3656374,68.144392 -26.252598,95.278858 -61.316916,110.62781 c -36.186043,15.84297 -73.053684,19.24352 -94.657264,17.59107 -7.64194,9.79305 -14.56926,20.46768 -20.29293,31.59305 -8.5057,16.53006 -14.22248,33.78425 -15.81537,50.42664 9.56057,2.18767 24.17916,3.36058 41.82942,2.70851 19.66654,-0.7244 42.79185,-3.7031 66.344852,-9.86663 47.22485,-12.35982 95.457503,-37.3259 121.517319,-81.83223 0.220959,-0.37798 0.491496,-0.70889 0.798596,-0.98829 z m -6.277605,23.72911 c -28.9238016,35.72106 -72.329983,56.40328 -113.892328,67.28265 -24.191421,6.33046 -47.934971,9.39023 -68.176391,10.13728 -17.16407,0.63322 -32.03204,-0.38922 -42.5906,-2.60161 -0.0786,10.00624 1.46723,19.70007 4.94088,28.77453 1.91746,0.71858 3.85411,1.40588 5.81187,2.06096 C -93.489084,279.18399 1.9976974,231.90936 32.134646,143.98926 Z M -105.78373,115.85552 c -16.65446,3.44385 -31.84582,4.53517 -43.50273,4.22671 10.21645,-11.80607 21.36688,-21.974182 32.43586,-29.601962 4.16667,7.78931 7.88949,16.232532 11.06776,25.377032 z m -75.90761,-99.945199 c 26.07844,13.270138 51.50657,34.144786 69.74296,65.916197 0.0687,0.0899 0.13314,0.18405 0.19534,0.28043 0.13876,0.21935 0.25615,0.44609 0.35089,0.67977 5.32524,9.4165 10.02221,19.781192 13.922566,31.176882 10.651608,-2.64497 21.740188,-6.26568 32.765674,-11.09195 24.40783,-10.686012 48.402926,-27.231532 66.7014294,-52.133724 -0.047,-0.107255 -0.08995,-0.217558 -0.128178,-0.329154 C -14.807216,1.2629532 -48.788643,-30.66076 -83.790193,-49.939188 c -34.351917,-18.918571 -69.330047,-25.459633 -89.251357,-24.268393 -38.79543,10.729381 -73.25155,35.121374 -96.09024,69.5454222 21.23323,-0.612716 53.21539,3.86784301 84.59767,19.1541248 1.09194,0.08492 2.11632,0.593351 2.84529,1.415623 z m -2.10647,140.027669 c 15.35536,-29.84771 39.06122,-56.706342 62.74371,-72.846812 -17.17504,-28.465182 -40.52794,-47.41039 -64.46679,-59.62719 -27.19331,10.285548 -51.14255,31.872544 -67.58815,58.78603 -16.57838,27.132432 -25.33647,59.364372 -22.26879,90.285022 17.21832,30.41259 43.84653,55.61417 77.48508,70.79462 -7.73678,-27.96204 -0.33151,-59.35616 14.09438,-87.39558 z m -100.52585,-1.66929 c 1.138,-26.79999 9.94568,-53.44346 23.99232,-76.431512 15.77823,-25.821765 38.32728,-47.290999 64.47729,-59.228025 -30.1577,-12.9959038 -59.97328,-15.9901648 -78.33912,-14.5225208 -0.1242,0.01075 -0.24752,0.01451 -0.36955,0.01439 -5.62522,9.7238738 -10.36149,20.1566248 -14.06523,31.2254168 -13.53945,40.463341 -10.94352,82.438311 4.30559,118.941611 z M 7.8857844,42.101346 C 13.609142,33.061313 18.61671,23.037779 22.704913,11.93618 3.2374474,-26.124068 -30.567607,-56.887268 -74.312838,-71.52488 c -22.089071,-7.391234 -44.628782,-9.973715 -66.484602,-8.315301 18.52854,3.662669 39.99873,10.870071 61.091761,22.486516 35.096202,19.32907 69.482937,51.0509962 87.5894484,99.45325 z"
       fill-rule="evenodd"
       id="path224"
       style="stroke-width:5;fill:#232c55;stroke:#232c55;stroke-opacity:1;stroke-dasharray:none;fill-opacity:1" /><path
       style="fill:#ffce26;fill-opacity:1;stroke:#232c55;stroke-width:7.26501;stroke-dasharray:none;stroke-opacity:1"
       d="M -15.136213,-68.783669 C 122.8531,-147.3782 269.05829,-74.443738 253.73583,-63.809939 89.782897,-92.207187 24.713838,-37.647 22.862551,-32.735766 Z"
       id="path7243"
       sodipodi:nodetypes="cccc" /><path
       style="fill:#fecb24;fill-opacity:1;stroke:#232c55;stroke-width:7.26501;stroke-dasharray:none;stroke-opacity:1"
       d="m -93.444794,-102.32942 c 106.872308,-97.65793 347.191434,-78.83222 402.075984,28.801482 l -7.62846,-0.621861 C 149.20209,-175.57829 41.467087,-130.03836 -34.949507,-81.754519 Z"
       id="path7245"
       sodipodi:nodetypes="ccccc" /><path
       style="fill:#ffce26;fill-opacity:1;stroke:#232c55;stroke-width:7.26501;stroke-dasharray:none;stroke-opacity:1"
       d="M -17.196639,269.55093 C 120.79267,348.14546 266.99788,275.211 251.67542,264.5772 87.722471,292.97445 22.653412,238.41426 20.802125,233.50303 Z"
       id="path7243-6"
       sodipodi:nodetypes="cccc" /><path
       style="fill:#fecb24;fill-opacity:1;stroke:#232c55;stroke-width:7.26501;stroke-dasharray:none;stroke-opacity:1"
       d="M -95.505201,303.09668 C 11.367088,400.75459 251.68623,381.92889 306.57078,274.2952 l -7.62846,0.62186 C 147.14166,376.34554 39.406661,330.80562 -37.009933,282.52178 Z"
       id="path7245-2"
       sodipodi:nodetypes="ccccc" /><g
       aria-label="Light  Volley"
       id="text169"
       style="font-size:22.5778px;stroke-width:0.264583;stroke:#232c55;stroke-opacity:1"
       transform="matrix(7.3168199,0,0,5.2046794,-664.04809,-40.430844)"><g
         id="g24560"
         inkscape:path-effect="#path-effect24562"
         transform="translate(-0.93211014,-1.1989144)"
         style="stroke:#232c55;stroke-opacity:1"><path
           d="m 101.93002,4.2573036 2.8602,-0.2766593 0.005,17.5260587 4.84948,-0.152123 0.002,2.978341 -7.71513,0.157849 z"
           style="font-family:'Bebas Neue';-inkscape-font-specification:'Bebas Neue';fill:#ffffff;fill-opacity:1;stroke:#232c55;stroke-width:0.64183;stroke-dasharray:none;stroke-opacity:1"
           id="path223"
           inkscape:original-d="m 102.17657,4.3638082 h 3.455 V 21.668676 h 5.68501 v 2.884148 h -9.14001 z" /><path
           d="m 111.08455,3.371811 3.06213,-0.2961913 0.021,21.1648073 -3.06713,0.06275 z"
           style="font-family:'Bebas Neue';-inkscape-font-specification:'Bebas Neue';fill:#ffffff;fill-opacity:1;stroke:#232c55;stroke-width:0.64183;stroke-dasharray:none;stroke-opacity:1"
           id="path225"
           inkscape:original-d="m 112.98124,4.3638082 h 3.45499 V 24.552824 h -3.45499 z" /><path
           d="m 121.04465,24.410072 c -1.57047,0.03042 -2.75694,-0.407606 -3.56879,-1.309814 -0.8071,-0.917273 -1.20987,-2.238034 -1.21185,-3.965989 l -0.0129,-11.210741 c -0.002,-1.7246315 0.3972,-3.0790499 1.20091,-4.0677308 0.8082,-1.014668 1.9914,-1.6001851 3.55909,-1.7535295 1.58518,-0.155054 2.80661,0.2045245 3.65485,1.084001 0.85334,0.8638482 1.28361,2.1897394 1.28695,3.9741007 l 0.004,1.8898368 -3.14875,0.2271153 -0.003,-2.0873568 c -0.002,-1.432736 -0.57118,-2.0996398 -1.69979,-2.0015254 -1.11973,0.097343 -1.67532,0.8535551 -1.67336,2.2694332 l 0.0163,11.8003295 c 0.002,1.398103 0.56017,2.080391 1.68134,2.046444 1.13006,-0.03422 1.69731,-0.75893 1.695,-2.173713 l -0.007,-4.273754 -1.63838,0.08623 -0.005,-3.099988 4.78736,-0.304114 0.0135,7.220461 c 0.003,1.787919 -0.42243,3.177826 -1.27362,4.165079 -0.84633,0.960688 -2.06835,1.454472 -3.65636,1.485229 z"
           style="font-family:'Bebas Neue';-inkscape-font-specification:'Bebas Neue';fill:#ffffff;fill-opacity:1;stroke:#232c55;stroke-width:0.64183;stroke-dasharray:none;stroke-opacity:1"
           id="path227"
           inkscape:original-d="m 123.91154,24.841238 q -2.51272,0 -3.83189,-1.297866 -1.31918,-1.326708 -1.31918,-3.778233 V 9.1514891 q 0,-2.4515217 1.31918,-3.7493878 1.31917,-1.3267079 3.83189,-1.3267079 2.51272,0 3.83189,1.3267079 1.31918,1.2978661 1.31918,3.7493878 v 1.7304829 h -3.26653 V 8.9495982 q 0,-1.9900575 -1.7903,-1.9900575 -1.79032,0 -1.79032,1.9900575 V 19.995872 q 0,1.961219 1.79032,1.961219 1.7903,0 1.7903,-1.961219 v -3.951283 h -1.72749 v -2.884147 h 4.99402 v 6.604697 q 0,2.451525 -1.31918,3.778233 -1.31917,1.297866 -3.83189,1.297866 z" /><path
           d="m 128.13168,1.7228892 3.45674,-0.3343608 0.0209,9.1493526 3.80333,-0.249891 -0.0238,-9.2670681 3.63207,-0.35131942 0.0655,23.06099452 -3.63901,0.07445 -0.0264,-10.262421 -3.80435,0.208511 0.0232,10.131811 -3.46306,0.07085 z"
           style="font-family:'Bebas Neue';-inkscape-font-specification:'Bebas Neue';fill:#ffffff;fill-opacity:1;stroke:#232c55;stroke-width:0.64183;stroke-dasharray:none;stroke-opacity:1"
           id="path229"
           inkscape:original-d="m 131.29267,4.3638082 h 3.45499 v 8.2198048 h 3.70625 V 4.3638082 h 3.45498 V 24.552824 h -3.45498 V 15.46776 h -3.70625 v 9.085064 h -3.45499 z" /><path
           d="m 144.75271,3.4679464 -3.94024,0.3382525 -0.01,-3.30893566 11.94883,-1.15577716 0.0133,3.43865992 -4.14642,0.3559531 0.0725,20.3979959 -3.87231,0.07923 z"
           style="font-family:'Bebas Neue';-inkscape-font-specification:'Bebas Neue';fill:#ffffff;fill-opacity:1;stroke:#232c55;stroke-width:0.64183;stroke-dasharray:none;stroke-opacity:1"
           id="path231"
           inkscape:original-d="m 147.1856,7.2479555 h -3.61204 V 4.3638082 h 10.67905 v 2.8841473 h -3.61203 V 24.552824 h -3.45498 z" /><path
           d="m 100.83917,30.850005 2.2146,0.0078 1.46065,15.360691 0.0408,0.0025 1.46867,-15.352703 2.09369,0.0074 -2.18898,19.898618 -2.97223,-0.230185 z"
           style="font-family:'Bebas Neue';-inkscape-font-specification:'Bebas Neue';fill:#ffffff;stroke:#232c55;stroke-width:0.554818;stroke-dasharray:none;stroke-opacity:1;fill-opacity:1"
           id="path233"
           inkscape:original-d="m 100.83917,30.889393 h 2.69838 l 1.7503,15.119985 h 0.0487 l 1.75029,-15.119985 h 2.45528 l -2.57683,19.491694 h -3.54922 z" /><path
           d="m 112.59462,51.582377 c -1.1624,-0.09125 -2.04587,-0.60478 -2.65563,-1.537941 -0.60697,-0.928898 -0.90991,-2.198059 -0.91089,-3.810373 l -0.006,-10.585626 c -9.8e-4,-1.609398 0.30007,-2.851317 0.90509,-3.728872 0.60763,-0.881343 1.48905,-1.322019 2.64958,-1.319152 1.17037,0.0029 2.0734,0.454631 2.70382,1.358347 0.63338,0.907942 0.95212,2.189368 0.95401,3.841394 l 0.0124,10.866269 c 0.002,1.655099 -0.31434,2.913745 -0.9466,3.772788 -0.62949,0.855271 -1.53308,1.235193 -2.70536,1.143166 z m -0.003,-2.918071 c 0.82372,0.05595 1.23677,-0.589933 1.23547,-1.937712 l -0.0108,-11.182024 c -10e-4,-1.345275 -0.41516,-2.023191 -1.23791,-2.0339 -0.81787,-0.01065 -1.22446,0.650618 -1.22342,1.983943 l 0.009,11.082606 c 10e-4,1.335786 0.40916,2.031465 1.22798,2.087087 z"
           style="font-family:'Bebas Neue';-inkscape-font-specification:'Bebas Neue';fill:#ffffff;fill-opacity:1;stroke:#232c55;stroke-width:0.554818;stroke-dasharray:none;stroke-opacity:1"
           id="path235"
           inkscape:original-d="m 114.64707,50.659539 q -1.96909,0 -3.01441,-1.280883 -1.04532,-1.280883 -1.04532,-3.619885 V 35.511708 q 0,-2.339002 1.04532,-3.619886 1.04532,-1.28088 3.01441,-1.28088 1.96908,0 3.0144,1.28088 1.04532,1.280884 1.04532,3.619886 v 10.247063 q 0,2.339002 -1.04532,3.619885 -1.04532,1.280883 -3.0144,1.280883 z m 0,-2.784527 q 1.38565,0 1.38565,-1.921324 V 35.316793 q 0,-1.921324 -1.38565,-1.921324 -1.38565,0 -1.38565,1.921324 v 10.636895 q 0,1.921324 1.38565,1.921324 z" /><path
           d="m 117.8779,30.910068 2.48799,0.0088 0.0261,17.975341 4.19716,0.280673 0.005,3.045013 -6.69027,-0.518131 z"
           style="font-family:'Bebas Neue';-inkscape-font-specification:'Bebas Neue';fill:#ffffff;fill-opacity:1;stroke:#232c55;stroke-width:0.554818;stroke-dasharray:none;stroke-opacity:1"
           id="path237"
           inkscape:original-d="m 120.5057,30.889393 h 2.67407 v 16.707166 h 4.40005 v 2.784528 h -7.07412 z" /><path
           d="m 125.80774,30.938022 2.63094,0.0093 0.0379,18.48752 4.44159,0.297019 0.007,3.133239 -7.07824,-0.548176 z"
           style="font-family:'Bebas Neue';-inkscape-font-specification:'Bebas Neue';fill:#ffffff;fill-opacity:1;stroke:#232c55;stroke-width:0.554818;stroke-dasharray:none;stroke-opacity:1"
           id="path239"
           inkscape:original-d="m 128.86823,30.889393 h 2.67408 v 16.707166 h 4.40005 v 2.784528 h -7.07413 z" /><path
           d="m 134.19774,30.967597 7.7246,0.02723 0.01,3.219994 -4.93937,-0.06951 0.0157,5.864533 3.91422,0.1315 0.01,3.213522 -3.91527,-0.172878 0.0183,6.82517 4.94599,0.33075 0.01,3.229251 -7.73897,-0.599347 z"
           style="font-family:'Bebas Neue';-inkscape-font-specification:'Bebas Neue';fill:#ffffff;fill-opacity:1;stroke:#232c55;stroke-width:0.554818;stroke-dasharray:none;stroke-opacity:1"
           id="path241"
           inkscape:original-d="m 137.23077,30.889393 h 7.29291 v 2.784529 h -4.61884 v 5.151376 h 3.67076 v 2.784527 h -3.67076 v 5.986734 h 4.61884 v 2.784528 h -7.29291 z" /><path
           d="m 146.36151,44.150717 -3.61802,-13.152995 3.13932,0.01107 2.076,8.448709 0.0548,0.0017 2.04492,-8.43567 3.00789,0.0106 -3.68237,13.255495 0.0355,9.85285 -3.02525,-0.234291 z"
           style="font-family:'Bebas Neue';-inkscape-font-specification:'Bebas Neue';fill:#ffffff;fill-opacity:1;stroke:#232c55;stroke-width:0.554818;stroke-dasharray:none;stroke-opacity:1"
           id="path243"
           inkscape:original-d="M 148.51049,42.083194 145.2773,30.889393 h 2.84423 l 1.82324,7.156236 h 0.0485 l 1.82323,-7.156236 h 2.60114 l -3.23318,11.193801 v 8.297893 h -2.67408 z" /></g></g></g></svg>
